<?xml version="1.0" standalone="no"?>
<!DOCTYPE svg PUBLIC "-//W3C//DTD SVG 20010904//EN"
 "http://www.w3.org/TR/2001/REC-SVG-20010904/DTD/svg10.dtd">
<svg version="1.0" xmlns="http://www.w3.org/2000/svg"
 width="1300.000000pt" height="1300.000000pt" viewBox="0 0 1300.000000 1300.000000"
 preserveAspectRatio="xMidYMid meet">
<metadata>
Created by potrace 1.14, written by Peter Selinger 2001-2017
</metadata>
<g transform="translate(0.000000,1300.000000) scale(0.100000,-0.100000)"
fill="#000000" stroke="none">
<path d="M1874 9398 c1 -1801 0 -1924 -16 -1940 -9 -9 -36 -27 -60 -39 -24
-12 -51 -28 -60 -37 -10 -8 -18 -11 -18 -6 0 5 -4 5 -8 -1 -4 -5 -18 -16 -32
-24 -14 -8 -73 -42 -131 -76 -58 -34 -112 -65 -120 -68 -8 -4 -21 -11 -29 -17
-51 -33 -152 -90 -159 -90 -5 0 -11 -3 -13 -7 -1 -5 -29 -21 -60 -38 -32 -16
-58 -32 -58 -35 0 -4 -16 -12 -35 -19 -19 -7 -35 -17 -35 -22 0 -5 -5 -9 -10
-9 -6 0 -113 -59 -238 -131 -125 -73 -247 -143 -272 -156 -25 -14 -65 -38 -90
-53 -25 -15 -90 -53 -145 -84 -55 -31 -107 -61 -115 -67 -8 -5 -22 -12 -30
-16 -8 -4 -38 -22 -67 -40 -29 -18 -57 -33 -63 -33 -15 0 -12 -16 5 -30 9 -7
14 -15 11 -17 -2 -3 7 -21 20 -40 13 -20 24 -42 24 -49 0 -8 4 -14 10 -14 5 0
12 -11 16 -25 3 -14 10 -25 16 -25 5 0 7 -4 4 -9 -4 -5 -2 -11 2 -13 8 -3 90
-141 165 -278 17 -30 48 -83 69 -118 21 -34 38 -64 38 -67 0 -2 14 -24 30 -48
17 -25 30 -48 30 -52 0 -4 18 -37 40 -72 23 -35 45 -74 50 -86 6 -12 21 -40
35 -62 14 -22 35 -58 47 -80 11 -22 32 -58 47 -80 14 -22 26 -42 26 -45 0 -3
17 -33 38 -68 20 -35 37 -67 37 -72 0 -4 3 -10 8 -12 4 -1 39 -59 79 -128 39
-69 81 -141 92 -160 12 -19 28 -50 36 -68 17 -37 35 -37 86 -1 14 10 29 16 33
12 3 -3 6 -1 6 5 0 7 4 12 9 12 5 0 50 25 100 55 51 30 94 55 96 55 2 0 24 14
48 30 25 17 49 30 55 30 5 0 20 8 33 19 13 10 57 35 97 56 39 21 72 42 72 46
0 4 10 11 22 15 12 3 50 24 85 45 35 22 66 39 69 39 2 0 18 10 34 22 16 12 33
18 37 14 4 -4 8 -58 9 -119 1 -62 3 -112 4 -112 1 0 5 -246 14 -1085 3 -195 5
-355 6 -355 0 0 3 -56 6 -125 8 -221 22 -382 38 -466 2 -12 7 -39 10 -60 4
-21 14 -68 22 -104 9 -36 17 -72 19 -80 2 -8 4 -15 5 -15 1 0 4 -11 6 -25 3
-13 9 -29 14 -34 6 -6 10 -18 10 -28 0 -10 4 -26 9 -36 6 -9 24 -45 41 -80 39
-81 99 -162 170 -232 98 -95 120 -111 245 -173 146 -72 333 -135 485 -163 19
-3 40 -7 45 -8 12 -3 70 -14 110 -21 17 -3 46 -8 65 -11 19 -4 49 -8 65 -10
17 -2 50 -6 75 -9 25 -3 65 -8 90 -10 25 -2 45 -5 45 -5 0 -1 25 -4 55 -6 30
-3 75 -6 100 -9 103 -8 238 -17 287 -19 29 0 53 -3 53 -6 0 -3 42 -6 93 -6 87
-1 372 -12 372 -14 0 -1 428 -10 775 -16 195 -3 1066 -6 1935 -7 1548 -2 1795
1 2215 28 173 11 196 13 260 20 36 4 85 8 110 10 25 2 64 6 87 10 80 11 108
16 143 20 31 5 201 38 255 50 53 12 142 37 160 45 11 5 38 14 60 21 22 6 46
17 54 23 8 6 16 10 18 8 8 -7 140 62 207 108 84 58 126 96 186 170 46 56 65
83 77 110 4 8 9 17 13 20 10 8 60 119 60 133 0 7 5 18 12 25 7 7 9 12 5 12 -4
0 -1 13 8 30 9 16 13 30 11 30 -3 0 1 18 9 41 8 22 14 43 14 47 -1 4 0 9 1 12
2 7 6 26 20 99 17 96 20 121 38 351 8 108 8 1000 -1 1617 -3 227 -2 413 1 412
4 0 27 -14 52 -30 25 -16 56 -34 70 -41 14 -7 34 -21 44 -30 11 -10 26 -18 33
-18 7 0 13 -3 13 -8 0 -4 9 -12 20 -17 18 -9 203 -124 269 -167 14 -10 33 -21
41 -25 22 -10 74 -47 82 -58 4 -5 8 -6 8 -1 0 5 8 2 18 -6 24 -21 172 -111
175 -107 1 2 11 22 22 44 11 22 32 59 47 81 16 23 28 45 28 48 0 3 18 35 40
71 22 36 40 69 40 74 0 5 7 14 15 21 8 7 13 16 10 20 -3 5 -1 10 3 12 5 1 22
28 39 58 17 30 108 190 203 355 95 165 203 352 239 415 36 63 73 127 80 143 8
15 18 27 23 27 5 0 6 4 3 10 -3 6 -1 10 6 10 7 0 10 3 7 6 -4 3 16 41 43 85
27 44 49 82 49 85 0 2 10 21 23 42 13 20 38 63 55 94 l31 57 -42 24 c-23 14
-59 34 -79 46 -21 11 -55 31 -75 42 -21 12 -41 26 -45 33 -4 6 -8 8 -8 4 0 -4
-34 13 -75 37 -42 25 -80 45 -85 45 -6 0 -10 5 -10 10 0 6 -5 10 -10 10 -6 0
-27 11 -48 23 -20 13 -57 35 -82 49 -25 14 -63 36 -85 48 -22 13 -64 37 -94
54 -29 17 -70 41 -90 53 -20 12 -43 26 -51 30 -77 41 -226 129 -228 135 -2 4
-7 8 -12 8 -9 0 -151 80 -160 89 -3 4 -18 13 -35 21 -16 8 -89 50 -162 93 -74
42 -138 77 -143 77 -6 0 -10 5 -10 10 0 6 -4 10 -9 10 -5 0 -59 29 -120 65
-60 36 -113 65 -117 65 -4 0 -15 6 -23 14 -9 7 -41 27 -71 43 -30 17 -95 54
-145 83 -49 29 -110 64 -135 78 -25 14 -77 45 -117 69 -39 23 -76 43 -82 43
-6 0 -11 5 -11 10 0 6 -7 10 -15 10 -8 0 -15 5 -15 12 0 6 -3 9 -6 6 -3 -3
-46 18 -95 48 -49 30 -94 54 -99 54 -6 0 -10 5 -10 10 0 6 -9 10 -19 10 -11 0
-21 4 -23 9 -2 4 -34 25 -73 46 -38 21 -72 41 -75 44 -3 3 -21 14 -40 25 -52
28 -107 59 -230 131 -61 36 -114 65 -117 65 -4 0 -14 6 -22 14 -9 7 -36 25
-61 38 -25 14 -87 49 -138 79 -51 30 -110 63 -130 74 -80 45 -107 60 -112 65
-3 3 -25 16 -50 29 -25 14 -47 27 -50 30 -3 3 -23 15 -45 26 -22 10 -64 34
-93 52 -29 18 -57 33 -62 33 -6 0 -10 4 -10 8 0 5 -16 14 -35 22 -19 8 -35 17
-35 22 0 4 -4 8 -9 8 -6 0 -38 17 -73 37 -102 61 -121 72 -168 98 -236 133
-416 239 -422 249 -4 6 -8 8 -8 4 0 -6 -69 31 -150 82 -8 5 -37 22 -65 38 -27
16 -68 39 -90 52 -22 13 -56 33 -77 44 -192 109 -246 141 -262 155 -10 9 -19
14 -20 12 0 -3 -29 12 -64 32 -35 20 -67 37 -72 37 -4 0 -10 3 -12 8 -4 9
-147 92 -159 92 -5 0 -9 5 -9 10 0 6 -9 10 -20 10 -11 0 -20 4 -20 9 0 5 -19
18 -42 30 -45 21 -99 53 -108 61 -3 3 -19 12 -35 21 -58 31 -390 223 -395 228
-3 3 -26 17 -52 30 l-47 23 -43 -23 c-24 -13 -49 -30 -56 -36 -7 -7 -18 -13
-23 -13 -6 0 -33 -15 -62 -33 -29 -18 -73 -44 -99 -57 -27 -14 -48 -28 -48
-32 0 -5 -4 -8 -9 -8 -9 0 -169 -89 -237 -133 -23 -14 -45 -23 -48 -20 -3 4
-6 1 -6 -5 0 -7 -4 -12 -9 -12 -5 0 -38 -17 -73 -39 -35 -21 -86 -50 -113 -65
-28 -15 -104 -59 -170 -97 -66 -39 -149 -87 -185 -106 -36 -20 -67 -39 -70
-42 -3 -3 -18 -13 -35 -21 -16 -8 -32 -17 -35 -20 -9 -9 -84 -51 -112 -63 -16
-6 -28 -15 -28 -19 0 -4 -7 -8 -15 -8 -8 0 -15 -4 -15 -10 0 -5 -3 -9 -7 -8
-5 1 -57 -27 -118 -62 -60 -36 -113 -64 -117 -62 -5 1 -8 -2 -8 -7 0 -5 -14
-14 -30 -20 -16 -5 -30 -15 -30 -22 0 -7 -3 -9 -6 -6 -4 4 -19 -2 -34 -13 -16
-11 -30 -20 -33 -20 -3 0 -34 -17 -69 -39 -35 -21 -87 -51 -116 -67 -29 -16
-69 -39 -90 -51 -20 -13 -44 -26 -52 -29 -13 -7 -74 -43 -136 -81 -10 -7 -43
-24 -71 -39 -29 -14 -53 -31 -53 -37 0 -6 -3 -8 -6 -4 -3 3 -39 -14 -79 -39
-40 -24 -75 -44 -78 -44 -3 0 -6 588 -6 1308 0 719 0 1326 -1 1350 l0 42 -998
0 -998 0 0 -1922z m4756 -735 c25 -4 50 -8 55 -8 6 -1 23 -7 38 -13 16 -7 34
-12 42 -12 8 0 17 -5 20 -10 4 -6 11 -8 16 -5 5 4 12 0 15 -8 2 -7 11 -14 18
-14 42 0 231 -169 270 -242 22 -40 59 -115 61 -123 2 -5 3 -9 4 -10 1 -2 11
-34 21 -73 28 -103 22 -283 -13 -382 -14 -40 -22 -73 -19 -73 4 0 0 -5 -8 -10
-8 -5 -15 -13 -15 -17 0 -16 -67 -115 -106 -158 -22 -24 -63 -61 -92 -83 -51
-39 -152 -96 -172 -97 -6 0 -11 -67 -13 -176 l-2 -176 82 -3 c83 -2 244 -9
263 -11 6 0 24 0 40 0 38 2 172 -5 262 -14 37 -4 88 -8 113 -11 133 -11 164
-14 270 -29 173 -25 188 -27 270 -45 25 -5 59 -12 75 -15 24 -4 114 -27 195
-50 15 -4 75 -26 120 -43 14 -5 30 -11 35 -13 31 -8 210 -104 226 -120 10 -10
19 -16 19 -13 0 16 144 -114 195 -177 65 -79 134 -213 160 -309 1 -3 5 -12 8
-20 4 -8 8 -26 9 -40 2 -14 6 -27 9 -30 4 -3 10 -25 13 -50 4 -25 9 -54 11
-65 11 -54 27 -195 29 -262 0 -18 4 -33 9 -33 4 0 4 -8 -2 -17 -5 -10 -6 -24
-1 -33 8 -15 5 -1153 -3 -1255 -8 -103 -19 -201 -26 -240 -4 -23 -7 -51 -6
-63 1 -12 -2 -22 -7 -22 -5 0 -6 -5 -3 -10 3 -5 3 -15 -1 -22 -4 -7 -9 -21
-11 -33 -3 -26 -8 -46 -17 -70 -5 -11 -13 -33 -19 -50 -42 -121 -93 -201 -176
-282 -94 -92 -285 -197 -394 -217 -15 -2 -30 -7 -35 -10 -5 -3 -19 -7 -33 -10
-13 -3 -51 -12 -84 -20 -33 -8 -80 -18 -105 -21 -25 -4 -54 -9 -65 -11 -53 -8
-94 -14 -140 -19 -27 -3 -66 -8 -85 -10 -19 -3 -64 -7 -100 -10 -36 -3 -94 -7
-130 -10 -267 -20 -590 -27 -1245 -27 -673 0 -820 4 -1155 28 -125 9 -155 12
-202 18 -26 4 -67 9 -90 11 -40 4 -60 7 -140 21 -76 13 -66 11 -168 32 -114
24 -278 82 -360 127 -19 11 -37 19 -40 20 -12 1 -128 91 -160 124 -53 53 -110
132 -104 142 3 5 1 9 -3 9 -8 0 -47 71 -53 95 -1 6 -8 24 -15 41 -13 31 -44
150 -51 194 -2 14 -7 41 -10 60 -9 52 -14 95 -21 179 -7 93 -14 1311 -7 1323
4 7 9 69 17 216 0 12 3 22 7 22 3 0 5 15 4 32 -1 18 3 47 8 64 4 17 10 44 12
60 6 48 38 166 57 211 9 22 15 44 12 47 -4 3 0 6 7 6 7 0 11 3 8 6 -8 7 65
136 106 189 38 49 117 127 159 157 36 25 51 37 72 56 8 7 15 11 15 7 0 -3 12
2 28 13 50 34 292 138 292 125 0 -3 7 0 15 7 8 7 15 9 15 5 0 -4 7 -2 15 5 8
7 15 9 15 6 0 -4 9 -2 19 3 10 6 35 13 55 15 19 2 39 7 44 10 5 3 24 8 43 11
19 3 41 8 49 10 14 4 38 8 113 20 17 3 43 7 57 10 30 6 69 11 135 20 53 7 77
10 195 19 41 4 93 9 115 12 22 2 90 6 150 9 61 2 110 5 110 5 0 1 74 4 165 6
297 8 273 5 274 37 1 16 -2 31 -6 33 -5 3 -5 11 -1 17 4 7 8 66 8 133 0 95 -3
124 -15 135 -8 8 -17 13 -20 12 -9 -4 -70 21 -70 29 0 4 -5 8 -10 8 -16 0
-120 79 -163 123 -58 60 -139 188 -147 232 -2 6 -7 21 -12 35 -21 51 -34 148
-32 230 2 73 8 125 14 125 1 0 3 14 4 30 4 34 35 117 49 126 5 3 8 8 8 10 -1
11 12 49 18 49 3 0 12 14 20 32 8 17 49 66 93 108 60 60 100 89 173 126 52 26
103 49 112 50 10 1 29 5 43 8 14 4 41 9 60 12 19 3 36 7 37 8 5 5 139 -3 183
-11z"/>
<path d="M5216 5863 c-4 -4 -35 -8 -69 -9 -73 -2 -119 -9 -167 -24 -19 -6 -43
-13 -53 -15 -26 -6 -131 -58 -135 -67 -2 -4 -8 -8 -13 -8 -31 0 -262 -220
-231 -220 4 0 2 -4 -4 -8 -13 -9 -47 -71 -75 -137 -34 -80 -56 -202 -54 -295
3 -109 10 -149 41 -235 14 -39 28 -78 31 -87 3 -10 10 -18 15 -18 5 0 7 -4 4
-9 -8 -12 99 -155 150 -202 68 -62 244 -174 244 -154 0 3 13 -1 28 -9 16 -8
42 -17 58 -20 16 -2 29 -5 29 -6 0 -7 77 -13 160 -13 114 0 185 5 185 14 0 3
6 6 13 7 36 3 153 48 178 69 8 7 19 13 24 13 14 0 110 76 159 127 54 54 136
175 136 198 0 8 4 15 8 15 9 0 37 83 57 167 12 53 14 227 2 298 -11 68 -54
180 -98 255 -24 41 -114 147 -147 173 -12 10 -29 25 -36 33 -8 8 -19 14 -25
14 -5 0 -14 6 -18 13 -14 22 -187 101 -243 111 -14 3 -25 5 -25 6 0 3 -39 9
-74 12 -20 1 -39 6 -42 10 -3 5 -9 5 -13 1z"/>
<path d="M7775 5652 c-53 -4 -141 -32 -186 -57 -24 -14 -52 -28 -61 -31 -10
-4 -18 -10 -18 -14 0 -5 -8 -11 -17 -15 -40 -13 -174 -155 -241 -254 -41 -62
-102 -179 -102 -196 0 -6 -5 -16 -12 -23 -6 -6 -13 -17 -15 -24 -1 -7 -14 -51
-29 -98 -35 -115 -38 -137 -39 -272 0 -99 3 -120 18 -135 13 -13 17 -14 17 -3
0 7 3 10 7 7 3 -4 44 30 91 76 119 115 114 110 174 155 69 51 154 94 243 122
125 41 370 32 458 -16 15 -8 27 -12 27 -8 0 3 6 1 13 -5 8 -6 17 -8 20 -4 4 3
7 1 7 -6 0 -7 3 -10 8 -7 4 2 26 -9 50 -25 23 -16 45 -29 48 -29 10 0 149
-117 209 -177 85 -84 104 -96 123 -77 23 23 21 213 -2 319 -5 19 -32 118 -40
140 -4 12 -32 79 -51 120 -7 17 -14 34 -13 39 0 5 -5 12 -10 15 -5 3 -17 22
-27 41 -28 55 -121 176 -178 233 -61 60 -104 97 -114 97 -3 0 -14 6 -22 14
-21 19 -129 71 -166 81 -45 11 -136 20 -170 17z"/>
</g>
</svg>
