<svg xmlns="http://www.w3.org/2000/svg" width="649.967" height="482.81" viewBox="0 0 649.967 482.81">
  <g id="Group_3" data-name="Group 3" transform="translate(-567.403 -254.692)">
    <path id="Subtraction_1" data-name="Subtraction 1" d="M274.01,543.879c-15.882,0-33.471-.084-52.091-.173L220.3,543.7l-8.583-.041c-59.758-.279-101.291-.618-132.871-2.7-16.668-1.1-30.039-2.67-40.875-4.8-11.328-2.227-20.3-5.138-27.438-8.9A45.738,45.738,0,0,1-6.166,512.9c-3.919-5.615-6.755-12.535-8.669-21.156-1.7-7.676-2.765-16.99-3.337-29.31-.524-11.281-.609-24.041-.708-38.815-.1-15.572-.222-33.222-.893-53.177l-43.154,25.169-50.5-87.468,93.654-54.072v-193h99.9V196.393L211.72,120.42,536.541,308.355l-50.605,88.028-41.241-25.94c.018,16.693.28,31.965.512,45.439v.022c.474,27.633.849,49.457-1.1,66.52a92.106,92.106,0,0,1-4.939,22.239,45.586,45.586,0,0,1-10.085,16.162c-4.985,5.071-11.427,9.046-19.694,12.151-8.117,3.049-18.194,5.33-30.806,6.975-11.755,1.533-26.253,2.571-44.325,3.175C318.689,543.647,300.108,543.879,274.01,543.879Zm-67.071-74.324c2.649.008,4.975.012,7.111.012,35.883,0,58.429-.92,75.386-3.076a128.363,128.363,0,0,0,23.205-4.8,50.321,50.321,0,0,0,15.589-7.819c7.743-6.009,12.2-14.41,14.462-27.24,2.127-12.082,2.242-27.467,2.388-46.944l.017-2.18-.006-1.574c-.116-33.32-.2-57.394-15.338-73.093A51.3,51.3,0,0,0,315.34,292.57a98.52,98.52,0,0,0-21.474-7.37c-16.886-3.956-39.714-6.122-69.791-6.624V261.3a35,35,0,1,0-23.334.167v17.107c-29.842.292-52.456,2.293-69.134,6.118a95.654,95.654,0,0,0-21.26,7.228,49.955,49.955,0,0,0-14.257,10.222c-14.964,15.7-14.992,40.164-15.03,74.028l0,1.338,0,1.272v.006c-.023,18.075-.041,32.352,1.645,44.107,1.815,12.654,5.476,21.152,11.872,27.556,7.328,7.338,18.7,12.116,35.785,15.037,16.486,2.819,38.689,4.076,71.992,4.076C203.852,469.563,205.353,469.56,206.939,469.555Z" transform="translate(680.83 193.622)" fill="#003580"/>
    <circle id="Ellipse_2" data-name="Ellipse 2" cx="38.443" cy="38.443" r="38.443" transform="translate(788.05 527.984)" fill="#003580"/>
    <path id="Path_4" data-name="Path 4" d="M38.443,0C58.89.256,76.885,28.2,76.885,49.427s-8.654-12.45-38.443-12.742S0,70.658,0,49.427,18-.256,38.443,0Z" transform="translate(919.838 538.205)" fill="#003580"/>
  </g>
</svg>
